# xmcd CD database file
#
# Track frame offsets:
#	150
#	20937
#	41537
#	62900
#	81912
#	105012
#	129550
#	148050
#	166302
#	182275
#	202875
#	230975
#
# Disc length: 3342 seconds
#
# Revision: 0
# Processed by: cddbd v1.5PL3 Copyright (c) Steve Scherf et al.
# Submitted via: CDex 1.51
#
DISCID=a10d0c0c
DTITLE=Cozy Powell - Especially For You
DYEAR=1998
DGENRE=Hard Rock
TTITLE0=Man With A Mission
TTITLE1=Ivory Towers
TTITLE2=Why Does Love Hurt
TTITLE3=Haunted By The Devil
TTITLE4=Doing The Natural Thing
TTITLE5=All I Wanted Was Your Love
TTITLE6=Call Me Mayhem
TTITLE7=The Light
TTITLE8=High Time To Fly
TTITLE9=Make You A Man
TTITLE10=Power In The Wrong Hands
TTITLE11=You're All I Believe In
EXTD=YEAR: 1998
EXTT0=
EXTT1=
EXTT2=
EXTT3=
EXTT4=
EXTT5=
EXTT6=
EXTT7=
EXTT8=
EXTT9=
EXTT10=
EXTT11=
PLAYORDER=
